<?xml version="1.0" encoding="utf-8" ?>
<svg baseProfile="full" height="200mm" version="1.1" viewBox="0,0,200,200" width="200mm" xmlns="http://www.w3.org/2000/svg" xmlns:ev="http://www.w3.org/2001/xml-events" xmlns:xlink="http://www.w3.org/1999/xlink"><defs /><rect fill="#1a1a1a" height="200" width="200" x="0" y="0" /><text alignment-baseline="middle" fill="#e1ed5e" style="dominant-baseline: central; font-size:9.0px; font-family:Arial;" text-anchor="middle" x="100.0" y="100.0">2022</text><line stroke="#e1ed5e" stroke-width="0.3" x1="100.0" x2="100.0" y1="15.0" y2="10.0" /><path d="M 100.0 14.0 a86.0,86.0 0 0,1 42.46469731375804,11.215312516191453" fill="none" id="id37" stroke="none" /><text fill="#e1ed5e" style="font-size:6.75px; font-family:Arial;" text-anchor="middle"><textPath startOffset="22.20632615414155" xlink:href="#id37">January</textPath></text><line stroke="#e1ed5e" stroke-width="0.3" x1="143.23703022742887" x2="145.7803849466894" y1="26.81831364943548" y2="22.513508569990506" /><path d="M 143.74570117128098 25.957352633546492 a86.0,86.0 0 0,1 28.547481713284135,27.462654790039103" fill="none" id="id38" stroke="none" /><text fill="#e1ed5e" style="font-size:6.75px; font-family:Arial;" text-anchor="middle"><textPath startOffset="19.985693538727396" xlink:href="#id38">February</textPath></text><line stroke="#e1ed5e" stroke-width="0.3" x1="172.23445277983987" x2="176.4835382374775" y1="55.19839476539836" y2="52.563006222186495" /><path d="M 173.08426987136738 54.67131705675599 a86.0,86.0 0 0,1 12.851231095245387,41.99856678651699" fill="none" id="id39" stroke="none" /><text fill="#e1ed5e" style="font-size:6.75px; font-family:Arial;" text-anchor="middle"><textPath startOffset="22.20632615414155" xlink:href="#id39">March</textPath></text><line stroke="#e1ed5e" stroke-width="0.3" x1="184.98032266829074" x2="189.97916517819016" y1="98.17113171792111" y2="98.06355123074" /><path d="M 185.9800911702706 98.14961562048488 a86.0,86.0 0 0,1 -9.607161424134198,41.387399972396054" fill="none" id="id40" stroke="none" /><text fill="#e1ed5e" style="font-size:6.75px; font-family:Arial;" text-anchor="middle"><textPath startOffset="21.466115282336823" xlink:href="#id40">April</textPath></text><path d="M 120.81339534386255 102.79330883721812 l 47.453506812043145 6.36860530178499 a68.87895615247422,68.87895615247422 0 0,0 -0.16782176935844043,1.1737450640202733 l -47.3368509916681 -7.184495837785674" fill="#4fff2b" stroke="none" /><line stroke="#e1ed5e" stroke-width="0.3" x1="174.80103733775053" x2="179.2010983576182" y1="140.37084112569926" y2="142.7455964860345" /><path d="M 175.68104954172406 140.8457921977663 a86.0,86.0 0 0,1 -30.038265399797805,32.042727171017184" fill="none" id="id41" stroke="none" /><text fill="#e1ed5e" style="font-size:6.75px; font-family:Arial;" text-anchor="middle"><textPath startOffset="22.206326154141568" xlink:href="#id41">May</textPath></text><line stroke="#e1ed5e" stroke-width="0.3" x1="143.8653032363475" x2="146.44561519142675" y1="172.8068346515853" y2="177.08958963109032" /><path d="M 144.38136562736335 173.6633856474863 a86.0,86.0 0 0,1 -40.68145358897372,12.25698825130547" fill="none" id="id42" stroke="none" /><text fill="#e1ed5e" style="font-size:6.75px; font-family:Arial;" text-anchor="middle"><textPath startOffset="21.466115282336833" xlink:href="#id42">June</textPath></text><path d="M 108.59647513512805 119.15986991738527 l 24.13035256008869 53.78185929052389 a79.94711446220154,79.94711446220154 0 0,0 -1.2604207961526201,0.5525314366805235 l -23.201011089278314 -54.18925528049887" fill="#44ffe7" stroke="none" /><path d="M 108.2653958097858 119.30500536409082 l 23.056179453811808 53.85098043390765 a79.57913881834965,79.57913881834965 0 0,0 -1.2639006678349092,0.5283105816603714 l -22.125807326479435 -54.239876058587996" fill="#43ffe0" stroke="none" /><path d="M 107.59598834532513 119.57807347666477 l 22.069857384853268 56.883353404049444 a82.01470723913822,82.01470723913822 0 0,0 -1.3205530882466905,0.49932018273886614 l -21.087434075846303 -57.25482183689494" fill="#49f3ff" stroke="none" /><path d="M 104.13013068566511 120.58985236759428 l 12.390392056995317 61.76955710278282 a84.0,84.0 0 0,0 -1.4201295417131825,0.2721712066061275 l -11.32529490071043 -61.973685507737414" fill="#4dd2ff" stroke="none" /><path d="M 103.41894727170886 120.7198165907248 l 8.682284164238872 52.61717165403034 a74.32868656903418,74.32868656903418 0 0,0 -1.264168626073443,0.19743714045177008 l -7.775279674556913 -52.75882710182921" fill="#37ff7c" stroke="none" /><path d="M 102.70371172650421 120.8252237178851 l 6.975075163479545 53.725217560948195 a75.17610797674013,75.17610797674013 0 0,0 -1.2846973140276388,0.1555589535531034 l -6.049250426400525 -53.83732204322665" fill="#39ff8d" stroke="none" /><path d="M 101.62511606390274 120.93702456842531 l 4.156725102112267 53.55276310426264 a74.71384178846085,74.71384178846085 0 0,0 -1.2830758873423955,0.08848842537273216 l -3.2342864539909413 -53.616379874151654" fill="#38ff84" stroke="none" /><path d="M 101.26447882468166 120.96189622390904 l 3.2610932185291905 54.06076898164898 a75.15903869038996,75.15903869038996 0 0,0 -1.2920623682763668,0.06678486597761052 l -2.330042781839344 -54.10889365438879" fill="#39ff8c" stroke="none" /><path d="M 100.90346689309514 120.98055641714683 l 1.8652895217776901 43.31626575922406 a64.35640880335663,64.35640880335663 0 0,0 -1.1071743209504283,0.03813332225299424 l -1.1193948491526096 -43.341955879903146" fill="#a5ff21" stroke="none" /><line stroke="#e1ed5e" stroke-width="0.3" x1="102.19456741930631" x2="102.32365962044197" y1="184.97166512339345" y2="189.96999836594603" /><path d="M 102.22038585953345 185.97133177190398 a86.0,86.0 0 0,1 -42.740103519485714,-10.115201625700543" fill="none" id="id43" stroke="none" /><text fill="#e1ed5e" style="font-size:6.75px; font-family:Arial;" text-anchor="middle"><textPath startOffset="22.20632615414155" xlink:href="#id43">July</textPath></text><path d="M 100.18074693466247 120.99922214144158 l 0.43249531381248496 50.24740910179879 a71.24927037918064,71.24927037918064 0 0,0 -1.2264844969498463,0.0 l 0.4324953138124503 -50.24740910179879" fill="#31ff3b" stroke="none" /><path d="M 99.45781275523022 120.99299961872073 l -1.3978131595823566 54.122060983959905 a75.14010866982608,75.14010866982608 0 0,0 -1.292694858826851,-0.04452302468875542 l 2.3292283700838508 -54.089981160845056" fill="#39ff8c" stroke="none" /><path d="M 92.06813273071674 119.44442032107085 l -16.182948777282533 39.67137212172176 a63.845135046446906,63.845135046446906 0 0,0 -1.0140083195347074,-0.42385555980401896 l 16.863428556314705 -39.38693151889777" fill="#b0ff20" stroke="none" /><path d="M 91.40352486487194 119.15986991738527 l -22.112147546391498 49.2836731245405 a75.01691869923665,75.01691869923665 0 0,0 -1.1735932691244175,-0.5387391087401161 l 22.957208811283333 -48.89574694546631" fill="#39ff8a" stroke="none" /><path d="M 91.07499286063937 119.00905698771935 l -23.301564853447196 49.62917869821976 a75.8271675620694,75.8271675620694 0 0,0 -1.1767196823762567,-0.5648969566779458 l 24.152397203823696 -49.22072746504225" fill="#3bff9a" stroke="none" /><line stroke="#e1ed5e" stroke-width="0.3" x1="58.666819895761336" x2="56.23545636021788" y1="174.27360380694188" y2="178.64263932499728" /><path d="M 58.180547188652646 175.14741091055294 a86.0,86.0 0 0,1 -31.652253787137756,-30.449443065178592" fill="none" id="id44" stroke="none" /><text fill="#e1ed5e" style="font-size:6.75px; font-family:Arial;" text-anchor="middle"><textPath startOffset="22.20632615414155" xlink:href="#id44">August</textPath></text><path d="M 89.7882731507175 118.34994917583269 l -21.678545181131298 38.95523334603322 a65.58104447199784,65.58104447199784 0 0,0 -0.9816896283984603,-0.5574289915301425 l 22.345883576450966 -38.57630118870844" fill="#8dff24" stroke="none" /><path d="M 87.07902340077011 116.55440617244103 l -17.50229204107717 22.424005582824332 a49.44584772984785,49.44584772984785 0 0,0 -0.6664417483891363,-0.5294616308432943 l 17.88569128218366 -22.119410037975907" fill="#ff0000" stroke="none" /><line stroke="#e1ed5e" stroke-width="0.3" x1="26.63291911575756" x2="22.317208475507996" y1="142.92168965132927" y2="145.44649492493687" /><path d="M 25.769776987707644 143.4266507060508 a86.0,86.0 0 0,1 -11.730757126820373,-40.83630448921669" fill="none" id="id45" stroke="none" /><text fill="#e1ed5e" style="font-size:6.75px; font-family:Arial;" text-anchor="middle"><textPath startOffset="21.46611528233685" xlink:href="#id45">September</textPath></text><line stroke="#e1ed5e" stroke-width="0.3" x1="15.007084014347285" x2="10.007500721073583" y1="101.09737516637583" y2="101.16192664675087" /><path d="M 14.007167355692545 101.11028546245083 a86.0,86.0 0 0,1 10.666146001902534,-42.60595125391555" fill="none" id="id46" stroke="none" /><text fill="#e1ed5e" style="font-size:6.75px; font-family:Arial;" text-anchor="middle"><textPath startOffset="22.20632615414155" xlink:href="#id46">October</textPath></text><line stroke="#e1ed5e" stroke-width="0.3" x1="26.266209847984243" x2="21.928928074336255" y1="57.711370442889674" y2="55.22380399835377" /><path d="M 25.398753493254645 57.213857153982495 a86.0,86.0 0 0,1 29.58750427330803,-30.492523968695096" fill="none" id="id47" stroke="none" /><text fill="#e1ed5e" style="font-size:6.75px; font-family:Arial;" text-anchor="middle"><textPath startOffset="21.46611528233685" xlink:href="#id47">November</textPath></text><line stroke="#e1ed5e" stroke-width="0.3" x1="56.762969772571076" x2="54.21961505331055" y1="26.818313649435495" y2="22.513508569990535" /><path d="M 56.25429882871897 25.957352633546506 a86.0,86.0 0 0,1 42.265352541879196,-11.944610805530505" fill="none" id="id48" stroke="none" /><text fill="#e1ed5e" style="font-size:6.75px; font-family:Arial;" text-anchor="middle"><textPath startOffset="22.20632615414155" xlink:href="#id48">December</textPath></text></svg>